<svg width="120" height="120" viewBox="0 0 120 120" fill="none" xmlns="http://www.w3.org/2000/svg">
  <!-- Background Circle -->
  <circle cx="60" cy="60" r="58" fill="url(#gradient)" stroke="#10B981" stroke-width="2"/>
  
  <!-- Chef Hat -->
  <path d="M40 55C40 45 45 40 55 40C55 35 58 32 62 32C66 32 69 35 69 40C79 40 84 45 84 55L82 65H42L40 55Z" fill="white"/>
  <rect x="38" y="63" width="48" height="12" rx="2" fill="white"/>
  
  <!-- Fork and Spoon -->
  <g transform="translate(48, 70)">
    <!-- Fork -->
    <path d="M2 0V12M0 0V8C0 9 1 10 2 10M4 0V8C4 9 3 10 2 10" stroke="#10B981" stroke-width="1.5" stroke-linecap="round"/>
    
    <!-- Spoon -->
    <path d="M18 0C16 0 14 2 14 4C14 6 16 8 18 8V12M18 0C20 0 22 2 22 4C22 6 20 8 18 8" stroke="#14B8A6" stroke-width="1.5" stroke-linecap="round"/>
  </g>
  
  <!-- Gradient Definition -->
  <defs>
    <linearGradient id="gradient" x1="0" y1="0" x2="120" y2="120" gradientUnits="userSpaceOnUse">
      <stop offset="0%" stop-color="#10B981"/>
      <stop offset="100%" stop-color="#14B8A6"/>
    </linearGradient>
  </defs>
</svg>
